<svg xmlns="http://www.w3.org/2000/svg" viewBox="0 0 48 48" width="48" height="48">
  <rect width="48" height="48" rx="11" fill="#16243d"/>
  <g transform="translate(2.5,3)">
    <rect x="4" y="26" width="5.6" height="12" rx="1.3" fill="#f3ecdd"/>
    <rect x="12" y="21" width="5.6" height="17" rx="1.3" fill="#f3ecdd"/>
    <rect x="20" y="16" width="5.6" height="22" rx="1.3" fill="#f3ecdd"/>
    <path d="M29.5 17h8.5v21h-8.5z" fill="#f3ecdd"/>
    <rect x="31.6" y="20.5" width="1.8" height="1.8" rx="0.4" fill="#c2884a"/>
    <rect x="34.8" y="20.5" width="1.8" height="1.8" rx="0.4" fill="#c2884a"/>
    <rect x="31.6" y="24.4" width="1.8" height="1.8" rx="0.4" fill="#c2884a"/>
    <rect x="34.8" y="24.4" width="1.8" height="1.8" rx="0.4" fill="#c2884a"/>
    <path d="M4 29C12 22 19 13 37 7" fill="none" stroke="#c2884a" stroke-width="2.4" stroke-linecap="round"/>
    <path d="M33 5.5l7-1.2-1.9 6.8z" fill="#c2884a"/>
  </g>
</svg>
